<?xml version="1.0" standalone="no"?>
<!DOCTYPE svg PUBLIC "-//W3C//DTD SVG 20010904//EN"
 "http://www.w3.org/TR/2001/REC-SVG-20010904/DTD/svg10.dtd">
<svg version="1.0" xmlns="http://www.w3.org/2000/svg"
 width="1056.000000pt" height="1056.000000pt" viewBox="0 0 1056.000000 1056.000000"
 preserveAspectRatio="xMidYMid meet">
<metadata>
Created by potrace 1.14, written by Peter Selinger 2001-2017
</metadata>
<g transform="translate(0.000000,1056.000000) scale(0.100000,-0.100000)"
fill="#000000" stroke="none">
<path d="M3373 10546 c-40 -18 -86 -81 -110 -149 -15 -42 -18 -84 -18 -217 0
-216 9 -308 60 -616 80 -476 78 -611 -10 -789 -47 -95 -92 -143 -286 -311 -92
-79 -173 -149 -181 -156 -68 -64 -144 -121 -162 -123 -87 -10 -125 -18 -225
-46 -8 -2 -55 -23 -104 -47 -199 -95 -367 -259 -505 -495 -29 -48 -52 -90 -52
-92 0 -2 -13 -32 -29 -67 -89 -188 -171 -484 -216 -775 -4 -25 -19 -56 -39
-80 -18 -21 -60 -76 -93 -123 -269 -381 -472 -885 -554 -1371 l-11 -66 -141
43 c-141 44 -379 106 -469 123 -38 7 -48 6 -48 -5 0 -8 2 -14 4 -14 38 0 364
-83 535 -136 l114 -36 -7 -66 c-14 -146 -16 -180 -20 -248 -2 -40 -6 -76 -9
-81 -4 -5 -25 -10 -47 -11 -23 -1 -53 -4 -68 -6 -15 -3 -52 -7 -82 -11 -30 -3
-77 -10 -105 -15 -27 -5 -66 -12 -85 -15 -115 -19 -316 -71 -335 -87 -20 -17
18 -26 54 -13 52 18 222 58 297 69 22 4 64 11 94 16 79 13 116 18 190 26 36 3
70 7 75 8 6 0 11 -35 13 -85 l3 -85 -87 -25 c-48 -13 -89 -29 -91 -36 -3 -7
27 -3 84 13 48 13 90 24 93 24 3 0 6 -43 8 -96 2 -53 5 -103 7 -112 1 -10 6
-51 10 -92 3 -41 9 -83 11 -92 4 -13 -8 -20 -53 -33 -263 -73 -650 -229 -640
-257 6 -17 7 -17 112 33 167 78 568 219 582 205 3 -2 18 -71 34 -153 16 -81
36 -177 45 -213 10 -39 12 -66 6 -68 -5 -1 -34 -17 -64 -35 -29 -18 -65 -38
-79 -45 -44 -23 -199 -141 -199 -152 0 -19 22 -10 78 33 59 45 153 105 234
150 l47 26 11 -42 c42 -170 208 -614 291 -778 17 -35 29 -71 26 -83 -2 -12
-19 -75 -36 -141 -95 -358 -191 -867 -216 -1135 -3 -36 -8 -74 -10 -85 -19
-93 -28 -644 -12 -795 11 -110 34 -236 60 -326 l22 -79 4688 -1 4687 0 1 35
c0 20 2 56 4 81 5 67 14 269 22 505 9 272 9 1237 -1 1475 -12 306 -23 522 -31
620 -2 25 -7 90 -10 145 -4 55 -9 116 -11 135 -2 19 -6 71 -9 115 -3 44 -7 96
-10 115 -4 37 -11 102 -20 185 -15 157 -39 353 -50 425 -2 14 -7 48 -10 76 -3
28 -8 61 -10 75 -3 13 -7 47 -10 74 -3 28 -8 57 -10 65 -2 8 -7 35 -10 60 -6
43 -57 335 -74 430 -5 25 -16 83 -25 130 -8 47 -34 166 -56 265 -23 99 -43
191 -46 204 -3 14 -7 28 -9 31 -2 4 -7 22 -10 41 -3 19 -11 52 -17 74 -6 22
-12 45 -13 50 -27 127 -213 734 -269 875 -8 19 -24 62 -36 95 -12 33 -26 69
-30 80 -5 11 -30 72 -55 135 -51 126 -183 415 -225 495 -15 28 -46 86 -70 130
-81 152 -203 345 -284 449 -25 33 -46 65 -46 71 0 7 13 41 29 76 78 174 142
411 185 689 19 123 26 400 13 555 -25 306 -112 618 -246 884 -63 125 -68 133
-121 218 -37 61 -52 76 -95 95 -43 20 -66 23 -170 23 -136 0 -193 -15 -321
-84 -134 -72 -249 -169 -399 -337 -151 -167 -230 -249 -475 -494 -231 -231
-274 -272 -426 -411 l-61 -55 -69 2 c-469 15 -580 20 -717 28 -45 3 -131 8
-192 11 -60 4 -130 8 -155 10 -25 2 -79 6 -120 10 -166 12 -206 16 -240 20
-19 3 -61 7 -93 10 -66 5 -140 14 -177 20 -14 3 -47 7 -75 11 -109 13 -302 56
-364 81 -148 59 -301 212 -485 487 -130 194 -328 556 -416 764 -19 43 -34 61
-83 94 -102 69 -182 101 -267 105 -51 2 -85 -1 -107 -11z"/>
</g>
</svg>
